<?xml version="1.0" encoding="UTF-8" standalone="no"?>
<!DOCTYPE svg PUBLIC "-//W3C//DTD SVG 1.1//EN" "http://www.w3.org/Graphics/SVG/1.1/DTD/svg11.dtd">
<svg width="100%" height="100%" viewBox="0 0 363 363" version="1.1" xmlns="http://www.w3.org/2000/svg" xmlns:xlink="http://www.w3.org/1999/xlink" xml:space="preserve" xmlns:serif="http://www.serif.com/" style="fill-rule:evenodd;clip-rule:evenodd;stroke-miterlimit:10;">
    <g transform="matrix(0.140904,-0.140904,0.0949877,0.0949877,-16.8982,186.004)">
        <g transform="matrix(-0.945833,0,0,-1,1401,1997.85)">
            <g transform="matrix(1.09019,0,0,1.06955,-64.9364,-70.9546)">
                <path d="M100,981.215L150.597,981.215L152.249,730.166L538.628,174.514L720,174.514L720,100L516.786,100L100,711.554L100,981.215Z" style="fill:white;"/>
            </g>
            <g transform="matrix(1.03036,0,0,1.06955,-58.9536,-67.2112)">
                <path d="M100,100L486.131,100C348.243,134.918 145.004,521.084 100,669.498L100,100Z" style="fill:white;fill-opacity:0;"/>
                <path d="M100,100L486.131,100C348.243,134.918 145.004,521.084 100,669.498L100,100ZM114.18,119.166L415.741,119.166C375.763,151.851 333.622,201.748 293.282,259.667C220.827,363.695 153.688,492.911 114.183,588.038C114.18,588.045 114.18,119.166 114.18,119.166L114.18,119.166Z" style="fill:white;"/>
                <g transform="matrix(1.02611,0,0,0.934976,37.6173,53.0414)">
                    <path d="M152.002,628.895C110.557,552.446 102.191,179.642 102.133,113.032C218.741,111.144 367.255,120.959 453.013,168.17" style="fill:none;stroke:white;stroke-width:16.2px;"/>
                </g>
            </g>
        </g>
        <g transform="matrix(-0.945833,0,0,1,1401,40)">
            <g transform="matrix(1.09019,0,0,1.06955,-64.9364,-70.9546)">
                <path d="M100,981.215L150.597,981.215L152.249,730.166L538.628,174.514L720,174.514L720,100L516.786,100L100,711.554L100,981.215Z" style="fill:white;"/>
            </g>
            <g transform="matrix(1.03036,0,0,1.06955,-58.9536,-67.2112)">
                <path d="M100,100L486.131,100C348.243,134.918 145.004,521.084 100,669.498L100,100Z" style="fill:white;fill-opacity:0;"/>
                <path d="M100,100L486.131,100C348.243,134.918 145.004,521.084 100,669.498L100,100ZM114.18,119.166L114.18,588.045C153.689,492.909 220.828,363.695 293.282,259.667C333.622,201.748 375.763,151.85 415.738,119.169C415.741,119.166 114.18,119.166 114.18,119.166L114.18,119.166Z" style="fill:white;"/>
                <g transform="matrix(1.02611,0,0,0.934976,37.6173,53.0414)">
                    <path d="M152.002,628.895C110.557,552.446 102.191,179.642 102.133,113.032C218.741,111.144 367.255,120.959 453.013,168.17" style="fill:none;stroke:white;stroke-width:16.2px;"/>
                </g>
            </g>
        </g>
        <g transform="matrix(0.945833,0,0,-1,39,1997.85)">
            <g transform="matrix(1.09019,0,0,1.06955,-64.9364,-70.9546)">
                <path d="M100,981.215L150.597,981.215L152.249,730.166L538.628,174.514L720,174.514L720,100L516.786,100L100,711.554L100,981.215Z" style="fill:white;"/>
            </g>
            <g transform="matrix(1.03036,0,0,1.06955,-58.9536,-67.2112)">
                <path d="M100,100L486.131,100C348.243,134.918 145.004,521.084 100,669.498L100,100Z" style="fill:white;fill-opacity:0;"/>
                <path d="M100,100L486.131,100C348.243,134.918 145.004,521.084 100,669.498L100,100ZM114.18,119.166L114.18,588.045C153.689,492.909 220.828,363.695 293.282,259.667C333.622,201.748 375.763,151.85 415.738,119.169C415.741,119.166 114.18,119.166 114.18,119.166L114.18,119.166Z" style="fill:white;"/>
                <g transform="matrix(1.02611,0,0,0.934976,37.6173,53.0414)">
                    <path d="M152.002,628.895C110.557,552.446 102.191,179.642 102.133,113.032C218.741,111.144 367.255,120.959 453.013,168.17" style="fill:none;stroke:white;stroke-width:16.2px;"/>
                </g>
            </g>
        </g>
        <g transform="matrix(0.945833,-4.10537e-48,0,1,39,40)">
            <g transform="matrix(1.09019,0,0,1.06955,-64.9364,-70.9546)">
                <path d="M100,981.215L150.597,981.215L152.249,730.166L538.628,174.514L720,174.514L720,100L516.786,100L100,711.554L100,981.215Z" style="fill:white;"/>
            </g>
            <g transform="matrix(1.03036,0,0,1.06955,-58.9536,-67.2112)">
                <path d="M100,100L486.131,100C348.243,134.918 145.004,521.084 100,669.498L100,100Z" style="fill:white;fill-opacity:0;"/>
                <path d="M100,100L486.131,100C348.243,134.918 145.004,521.084 100,669.498L100,100ZM114.18,119.166L415.741,119.166C375.763,151.851 333.622,201.748 293.282,259.667C220.827,363.695 153.688,492.911 114.183,588.038C114.18,588.045 114.18,119.166 114.18,119.166L114.18,119.166Z" style="fill:white;"/>
                <g transform="matrix(1.02611,0,0,0.934976,37.6173,53.0414)">
                    <path d="M152.002,628.895C110.557,552.446 102.191,179.642 102.133,113.032C218.741,111.144 367.255,120.959 453.013,168.17" style="fill:none;stroke:white;stroke-width:16.2px;"/>
                </g>
            </g>
        </g>
    </g>
</svg>
